# xmcd
#
# Track frame offsets:
#	150
#	14945
#	31402
#	43046
#	58672
#	73086
#	86542
#	101024
#	130046
#
# Disc length: 1950 seconds
#
# Revision: 0
# Processed by: cddbd v1.5.2PL0 Copyright (c) Steve Scherf et al.
# Submitted via: dBpowerAMP V4.0
#
DISCID=7c079c09
DTITLE=Powder Blues - Uncut (Blues and Jazz =Blazz)
DYEAR=1900
DGENRE=
TTITLE0=Cooking With The Blues
TTITLE1=Running Blues
TTITLE2=Well Do It
TTITLE3=Things Are Getting Better
TTITLE4=Send Out For A Bucket Of Beer
TTITLE5=Take The A Train
TTITLE6=Ain't That Loving You
TTITLE7=Let's Get Lose
TTITLE8=Disappearing Baby Blues
EXTD=
EXTT0=
EXTT1=
EXTT2=
EXTT3=
EXTT4=
EXTT5=
EXTT6=
EXTT7=
EXTT8=
PLAYORDER=
